<svg width="32" height="32" xmlns="http://www.w3.org/2000/svg">

 <g>
  <title>background</title>
  <rect fill="none" id="canvas_background" height="34" width="34" y="-1" x="-1"/>
 </g>
 <g>
  <title>Layer 1</title>
  <path fill="#ffffff" id="svg_1" d="m23.689899,8.40369c-1.4723,-2.93462 -1.74,-6.00264 -0.401499,-8.40369l-2.9445,0c-0.803101,2.13427 -0.803101,4.66871 0,6.93637c-4.015301,-1.06713 -8.0305,-0.40017 -10.97502,2.534451s-3.61371,6.936379 -2.40914,10.80478c-2.40914,-0.667 -4.81828,-0.667 -6.95974,0l0,2.934599c2.54298,-1.333899 5.48749,-1.0672 8.43199,0.4002c1.47225,2.934601 1.73991,6.002602 0.401521,8.403601l2.944489,0c0.803101,-2.134199 0.803101,-4.668699 0,-6.9363c3.8814,1.2005 7.896601,0.533501 10.8412,-2.4011s3.613701,-6.936399 2.4091,-10.8047c2.409101,0.666901 4.8183,0.666901 6.959702,0l0,-2.934649c-2.409101,1.33395 -5.353601,1.06715 -8.298101,-0.53356zm-2.007599,2.00091c0.669199,1.333899 1.0707,2.6678 1.2045,4.001699l-5.219801,-5.20226c1.4723,0.13339 2.676901,0.533561 4.015301,1.200561zm-11.242701,11.204901c-0.6692,-1.4673 -1.20456,-2.8013 -1.3384,-4.2686l5.4875,5.469099c-1.3384,0 -2.8107,-0.4002 -4.1491,-1.200499zm7.629,0.933699c0.401501,-0.1334 0.802999,-0.4002 1.2045,-0.533499c-0.535299,0.133299 -0.802999,0.400099 -1.2045,0.533499zm1.2045,-0.666899l-9.1012,-9.070701c-0.26766,0.4002 -0.4015,0.8004 -0.66918,1.333899l8.43198,8.4037c-0.5354,0.1334 -1.0707,0.2668 -1.4722,0.4002l-7.22746,-7.274799c-0.896057,-1.095237 -0.931891,0.425989 -0.13384,0.872c0,-1.867499 0.80304,-3.6016 2.2753,-5.2023c-0.133801,0.1334 -0.2677,0.2668 -0.4015,0.4002l9.3689,9.337399c-0.4016,0.2668 -0.6693,0.533602 -1.070801,0.800402zm2.007601,-1.7341l-9.368801,-9.337501c0.401501,-0.2667 0.669201,-0.5335 1.070701,-0.8003l9.101199,9.070601c-0.2677,0.4002 -0.535398,0.667 -0.803099,1.0672zm1.338499,-2.4011l-8.2982,-8.27028c0.535399,-0.13339 1.0707,-0.266781 1.6061,-0.400181l7.0936,7.06976c-0.1339,0.5336 -0.2677,1.067101 -0.401501,1.6007z"/>
 </g>
</svg>